<?xml version="1.0" encoding="utf-8"?>
<!-- Svg Vector Icons : http://www.onlinewebfonts.com/icon -->
<!DOCTYPE svg PUBLIC "-//W3C//DTD SVG 1.1//EN" "http://www.w3.org/Graphics/SVG/1.1/DTD/svg11.dtd">
<svg version="1.1" xmlns="http://www.w3.org/2000/svg" xmlns:xlink="http://www.w3.org/1999/xlink" x="0px" y="0px" viewBox="0 0 256 256" enable-background="new 0 0 256 256" xml:space="preserve">
<metadata> Svg Vector Icons : http://www.onlinewebfonts.com/icon </metadata>
<g><g><g><path fill="#000000" d="M107.5,73.1c-0.8,1.3-2.6,4.4-4,6.7c-1.5,2.6-3.1,4.5-3.9,5.1c-0.7,0.5-4.2,3.7-7.6,7.1c-10.8,10.8-17.7,14.4-26.9,13.9c-7.4-0.4-12.7-3.3-21.2-11.9c-3.9-3.8-6.5-6.1-7.1-6.1c-0.5,0-4,1-7.7,2.1c-4.6,1.4-7.1,2.5-7.7,3.2c-0.5,0.6-2.4,5.5-4.3,11c-6.4,19.4-8.4,35.6-5.9,48.2c0.4,1.9,0.8,6.2,0.9,9.5c0.2,5.4,0.4,6.5,1.5,8.9c2.1,4.7,8.2,9.5,14.6,11.6c2.9,0.9,5.4,1,62.1,2.1c55.8,1.1,59.5,1.1,67.9,0.4c34.6-3,59.2-8.9,76.6-18.4c5.7-3.2,8-5.2,9.9-9c1.4-2.8,1.5-3.5,1.5-7c0-4.4-0.9-7.2-3.4-10.8c-2.3-3.3-4.8-4.7-9.1-5.1c-4.4-0.3-11.9-2.2-24.7-6.1c-20-6.2-24.4-7.9-40.6-16.2c-8.3-4.3-15.4-7.9-15.8-8.2c-0.3-0.3-0.6-0.9-0.6-1.4c0-2.9-3.5-6-7.2-6.3c-1.4-0.1-2.5-0.4-2.5-0.6c0-1.2-1.7-3.8-3-4.6c-0.8-0.5-2.3-0.9-3.3-0.9c-1.8,0-1.9-0.1-2-1.4c-0.2-3.2-2.2-5.3-5.4-5.8c-1.4-0.2-2.5-1.1-6.4-5.1c-5.1-5.2-7.9-7-11.1-7C109.2,70.6,109,70.8,107.5,73.1z M117.3,80c2.4,2.4,4.3,4.5,4.2,4.8c-0.1,0.2-0.7,0.7-1.3,1.1c-1.1,0.6-1.4,0.5-4.1-1.3c-1.7-1-4-2.1-5.3-2.5c-1.3-0.3-2.4-0.6-2.5-0.6c-0.4-0.3,3.4-5.8,4-5.8C112.6,75.7,114.9,77.6,117.3,80z M110.4,89.9l1.7,0.7l-1.6,0.5c-1.1,0.4-1.9,1.1-2.4,2.1c-0.8,1.7-2.5,3-3.2,2.6c-0.2-0.1-1.1,0-2,0.4c-3.2,1.4-3.3,5.7,0,7.1c0.8,0.4,1.9,0.5,2.4,0.3c1.1-0.4,2.9-2,2.9-2.6c0-1.1,1.6-2.2,3.1-2.2c1.2,0,2-0.4,3-1.4c1.2-1.2,1.4-1.7,1.2-3c-0.1-0.9-0.1-1.6,0-1.6c0.4,0,4.4,2.4,4.4,2.6c0,0.5-9.5,6.4-14,8.7l-5,2.5l-4.2-2.4l-4.1-2.4l5.2-5.2c4.8-4.8,8.5-7.5,10.4-7.5C108.4,89.2,109.4,89.5,110.4,89.9z M39.3,99.9c4.8,4.8,9.9,8.5,14.4,10.6c9.5,4.3,20.3,3.5,29.7-2.2c5.6-3.5,4.7-3.3,8.2-1.3c1.7,1,2.9,1.9,2.7,2.1c-0.6,0.5-8.8,3.1-13.8,4.3c-5.5,1.4-10.8,2.3-17.3,3.1c-4.7,0.6-4.8,0.6-6.5-0.6c-5.3-3.5-11.8-5.7-22.8-8c-4.7-0.9-8.9-1.8-9.3-1.9c-0.7-0.2-0.6-0.6,0.6-3.7c0.7-1.9,1.4-3.7,1.6-3.8c0.2-0.1,2-0.8,4.1-1.5c2.1-0.7,3.8-1.3,3.9-1.3C35,95.7,36.9,97.6,39.3,99.9z M124.6,99.8c-0.4,2.7,0.1,4.1,1.9,4.9c1.3,0.6,1.7,0.7,2.9,0.1c0.7-0.4,1.6-1.3,1.9-1.9c0.6-1.2,0.6-1.2,1.9-0.6c1.2,0.6,1.3,0.9,1.5,3.8c0.2,3.5,1.3,4.8,3.8,4.8c1.6,0,3.6-1.6,3.6-2.9c0-1,0-1,1.5-0.3c1,0.5,1.2,0.9,1.5,3.6c0.4,4.3,0.6,4.7,2.3,5.4c2.5,1,4.5,0,5.1-2.7c0.2-0.7,0.4-1.3,0.5-1.3c0.3,0,22.4,11.1,22.4,11.3c0,0.1-1.4-0.2-3.2-0.6c-5.6-1.4-12.1-1.9-17.4-1.3c-12.3,1.3-22.2,6.4-31.4,16.2l-4.1,4.4l-4.3-0.3c-2.4-0.2-10.9-1.3-19-2.6c-8-1.3-15.9-2.4-17.5-2.6l-2.9-0.3l-1.6-2.9c-0.9-1.6-2.8-4.4-4.2-6.2c-1.4-1.8-2.5-3.3-2.3-3.3c0.2,0,2.5,0.6,5.1,1.4c20.5,5.9,40.2,8.8,46.4,6.8c4.2-1.4,7.1-4.7,7.1-8.1c0-3.4-4.9-10.1-10.6-14.6c-3-2.4-3.2-2.4-2.1,0.3c1,2.5,0.9,5.7-0.3,7.8c-3.1,5.5-10.7,6.3-31.7,3.4c-8.5-1.2-8.5-1.1-3-2.3c14.9-3.3,29.6-9.5,40.8-17.3c2.9-2,5.4-3.7,5.5-3.7C124.8,98,124.7,98.8,124.6,99.8z M33.2,112.8c11.8,2.4,16.3,4.1,22.8,8.5c3.5,2.4,9.3,8.1,11.5,11.4c1.9,2.8,2.1,3.4,0.9,3.1c-1.2-0.3-20.2-2.5-31.2-3.5c-10.6-1-13.4-0.8-17.2,1.1l-2.2,1.1V133c0-3,2.1-13.7,4-20.1c0.6-1.9,0.9-2.5,1.5-2.3C23.7,110.8,28.2,111.8,33.2,112.8z M171.4,128.3c7.2,1.9,7.8,2,8.8,0.3c1-1.7,1.2-1.7,4.8-0.4l2.8,1.1l-4.4,1.1c-6.1,1.4-12.7,4.8-16.6,8.3l-3.1,2.8l-2.1-3.6c-3.6-6.3-6.6-6.9-14.5-3.3c-7.5,3.4-12.7,5.5-16.6,6.4c-2,0.5-3.8,0.8-3.9,0.7c-0.3-0.3,4.1-4.4,7.1-6.6c5-3.8,12.2-6.9,18.6-8c1.2-0.2,5-0.3,8.2-0.2C165.5,127.1,167.8,127.4,171.4,128.3z M208.8,136c6.4,1.9,8,2.5,7,2.8c-0.6,0.1-6.7,0.5-13.4,0.8c-15.4,0.6-19.9,1.5-28.5,5.4c-3.5,1.6-5.3,1.9-6.5,1.1c-0.6-0.4-0.1-1,2.4-3.5c5-4.8,12-7.7,21.9-9C197.4,133,200.1,133.3,208.8,136z M41.3,137.6c19,1.9,40.8,4.7,60.2,7.9c9.8,1.6,21.3,2,27.5,0.9c4.8-0.8,10.8-2.9,18.3-6.4c5-2.3,7.6-3,8.5-2.4c0.3,0.2,1.6,2.4,3,4.8c3.2,5.7,5.1,7.7,8.2,8.6c2.9,0.9,5.1,0.5,9.3-1.6c2.7-1.3,7.1-2.9,10.7-3.8c1.2-0.3,8.3-0.8,16-1.2c10.1-0.5,15.4-0.9,19.5-1.7c6.8-1.3,12-1.3,13.3,0c1.5,1.3,2.7,4.2,3,6.9c0.3,3.2-1.1,6.3-3.5,7.9c-1.7,1.1-1.9,1.1-40.8,3c-29.8,1.4-40.1,1.8-43.1,1.5c-2.2-0.2-16.2-2.8-31.3-5.8c-15-2.9-29-5.6-31-5.8c-2-0.3-15-1.4-28.7-2.6l-25-2.1l-4.6,2.2c-4,1.9-5,2.2-8.4,2.4c-2.2,0.1-3.9,0-4.1-0.2c-0.2-0.3-0.4-2.4-0.6-4.8l-0.3-4.4l2.3-1.5c2.6-1.8,5.6-2.8,8-2.8C28.5,136.5,34.6,137,41.3,137.6z M62.5,152.9c13.5,1.2,26.5,2.4,28.7,2.8c2.3,0.4,15.9,3,30.4,5.8c22.8,4.5,27,5.2,32.2,5.4c3.6,0.1,18.1-0.4,36.1-1.3c16.5-0.8,30.4-1.4,31-1.3c1.3,0.2-7,3.2-14.4,5.3c-11,3-24.5,5.4-42.7,7.5c-8.9,1-27.5,1-89.9-0.3c-39.1-0.8-42.6-0.9-44.7-1.7l-2.3-0.9l4.8-0.2c4.1-0.2,4.9-0.4,5.5-1.1c0.9-1.3,0.8-1.9-0.3-3.1c-0.8-0.8-1.5-0.9-8.6-0.9c-8.4,0-8.1,0.1-8.8-3.2l-0.3-1.5h11.4c8.5,0,11.4-0.1,11.8-0.6c1.1-1.3,1.1-2.2-0.1-3.4l-1.1-1.1H30.1H19.1l0.1-2l0.1-1.9l4.2-0.3c3.6-0.2,4.7-0.5,8.1-2.1c2.2-1.1,4.4-1.9,5.1-1.9C37.5,150.8,49,151.7,62.5,152.9z"/><path fill="#000000" d="M51.8,159.6c-3.3,0.8-5.3,3.3-5.3,6.8c0,3.1,1.3,5.1,3.9,6.3c1.9,0.9,3.1,0.9,24.3,0.8c21.6-0.1,22.2-0.2,23.5-1.1c2.4-1.8,3.2-3.3,3.2-6c0-2.8-1-4.5-3.5-6c-1.5-0.9-2.5-0.9-23.1-1C62.9,159.3,52.6,159.4,51.8,159.6z M96,164.8c0.7,0.7,0.7,2.4,0,3.1c-0.4,0.4-6,0.6-22.2,0.6c-20.9,0-21.7,0-22.1-0.9c-0.6-1.2-0.6-1.7,0.3-2.5c0.6-0.6,3.3-0.7,22.2-0.7C90.1,164.3,95.6,164.4,96,164.8z"/></g></g></g>
</svg>