<svg xmlns="http://www.w3.org/2000/svg" xmlns:xlink="http://www.w3.org/1999/xlink" version="1.1" x="0px" y="0px" viewBox="0 0 512 640" style="enable-background:new 0 0 512 512;" xml:space="preserve"><g><path d="M458.99,284.38l-52.64-5.66c-6.87-0.74-13.63-2.37-20.09-4.84l-41.98-16.09c-1.81-0.69-3.83,0.21-4.52,2.02   c-0.69,1.81,0.21,3.83,2.02,4.52l41.98,16.09c7.02,2.69,14.37,4.46,21.84,5.27l40.34,4.34l-75.36,14.61   c-38.14,7.39-76.92,8.01-115.27,1.82l-87.64-14.13c-1.91-0.31-3.7,0.99-4.01,2.9c-0.31,1.91,0.99,3.71,2.9,4.01l87.64,14.13   c17.83,2.87,35.74,4.31,53.65,4.31c21.43,0,42.85-2.06,64.06-6.17l94.59-18.33c4.21,1.42,8.07,3.55,11.46,6.23l-0.12,0.04   c-13.31,4.74-26.89,8.65-40.68,11.73l-57.01,12.71c-15.33,3.42-28.75,12.63-37.44,25.71l-4.41,6.63l-65.25-17.42   c-10.19-2.72-20.64-3.22-31.04-1.49l-22.46,3.74c-2.56,0.43-5.12,0.68-7.69,0.81L84.41,254.32c-8.18-5.61-19.16-4.74-26.35,2.09   L19.5,293.05v-2.06c0-2.81,0.38-5.6,1.12-8.31l25.04-91.49l2.16,12.87c2.19,13.05,6.97,25.29,14.21,36.36   c0.67,1.03,1.79,1.58,2.93,1.58c0.66,0,1.32-0.18,1.91-0.57c1.62-1.06,2.07-3.23,1.01-4.84c-3.82-5.84-6.87-12.03-9.19-18.51   l8.37,4.82c4.59,2.64,9.71,3.95,14.82,3.95c6.1,0,12.18-1.87,17.33-5.55l79.14-56.74l18.36-8.96c2.43-1.19,5.39-0.73,7.34,1.14   l3.33,3.18l-8.92,10.51c-1.99-0.43-4.17-0.37-6.42,0.46c-4.03,1.49-7.01,5.14-7.53,9.41c-0.87,7.07,4.62,13.08,11.51,13.08   c6.25,0,11.34-4.94,11.59-11.13c0.03-0.65-0.29-0.78-0.71-0.28l-2.99,3.52c-0.69,0.82-1.68,1.24-2.67,1.24   c-0.8,0-1.6-0.27-2.26-0.83c-1.47-1.25-1.65-3.46-0.4-4.93l13.8-16.26l15.4,14.73l-85.08,97.96c-1.27,1.46-1.11,3.67,0.35,4.94   c0.66,0.58,1.48,0.86,2.29,0.86c0.98,0,1.95-0.41,2.64-1.21l53.87-62.02l39.56,28.54c11.97,8.64,26.04,13.07,40.27,13.07   c8.59,0,17.25-1.62,25.54-4.91l9.49-3.77c1.56,0.83,3.12,1.65,4.7,2.44c1.73,0.87,3.83,0.17,4.7-1.56c0.87-1.73,0.17-3.83-1.56-4.7   c-10.6-5.32-20.71-11.49-30.26-18.44l2.77-3.24c1.26-1.47,1.08-3.68-0.39-4.93c-1.47-1.26-3.68-1.08-4.93,0.39l-3.06,3.57   c-5.08-3.95-9.99-8.13-14.71-12.53l3.72-4.35c1.26-1.47,1.08-3.68-0.39-4.93c-1.47-1.26-3.68-1.08-4.93,0.39l-3.48,4.07   l-13.6-13.01l4.07-4.76c1.26-1.47,1.08-3.68-0.39-4.93c-1.47-1.26-3.68-1.08-4.93,0.39l-3.82,4.47l-33.31-31.86l4.53-5.34   c0.72-1.41,0.42-3.19-0.84-4.26c-1.47-1.25-3.68-1.07-4.93,0.4l-3.75,4.42l-2.85-2.72l-20.91-26.64c-1.87-2.39-4.68-3.85-7.71-4   c-3.03-0.16-5.98,1-8.09,3.18l-14.31,14.76c-1.43,1.47-2.39,3.31-2.77,5.33l-2.39,12.44c-0.36,1.9,0.88,3.73,2.78,4.1   c0.22,0.04,0.45,0.06,0.67,0.06c1.64,0,3.11-1.16,3.43-2.84l2.39-12.44c0.13-0.67,0.45-1.28,0.92-1.77l14.31-14.76   c0.71-0.74,1.66-1.12,2.7-1.06c1.02,0.05,1.94,0.53,2.57,1.33l14.61,18.62c-1.24,0.21-2.46,0.59-3.62,1.16l-58.04,28.32   c-15.02,7.33-32.8,5.85-46.4-3.87l-22.75-16.25c-3.59-2.56-8.22-3.21-12.37-1.73c-4.16,1.48-7.33,4.9-8.5,9.16L13.87,280.82   c-0.91,3.31-1.37,6.73-1.37,10.16v72.69c0,6.99,4.15,13.3,10.56,16.07l22.29,9.62c2.2,0.95,4.54,1.43,6.94,1.43h319.43   c11.47,0,22.94-1.38,34.09-4.11l71.67-17.53c12.96-3.17,22.01-14.7,22.01-28.04v-11.64C499.5,306.25,482.08,286.86,458.99,284.38z    M245.66,196.54l-9,10.53c-1.26,1.47-1.08,3.68,0.39,4.93c0.66,0.56,1.47,0.84,2.27,0.84c0.99,0,1.97-0.42,2.66-1.23l8.75-10.23   l13.6,13.01l-7.23,8.45c-1.26,1.47-1.08,3.68,0.39,4.93c0.66,0.56,1.47,0.84,2.27,0.84c0.99,0,1.97-0.42,2.66-1.23l6.99-8.18   c4.73,4.39,9.64,8.57,14.71,12.53l-5.62,6.57c-1.26,1.47-1.08,3.68,0.39,4.93c0.66,0.56,1.47,0.84,2.27,0.84   c0.99,0,1.97-0.42,2.66-1.23l5.89-6.89c6.15,4.49,12.52,8.66,19.1,12.51l-4.19,1.67c-19.77,7.85-41.88,5.11-59.13-7.33   l-39.05-28.17l26.38-30.38L245.66,196.54z M52.33,166.79c0.57-2.08,2.06-3.69,4.09-4.41c2.03-0.72,4.2-0.42,5.96,0.83l22.75,16.25   c15.69,11.21,36.21,12.92,53.54,4.46l2.07-1.01l-45.6,32.69c-7.22,5.18-16.87,5.66-24.57,1.23l-14.73-8.48   c-0.42-1.8-0.8-3.61-1.11-5.45l-4.66-27.8L52.33,166.79z M72.83,383.8c-7.54-10.23-19.13-16.84-31.93-17.99l-0.31-0.03   c-4.06-0.36-8.06-1.28-11.87-2.73l-9.22-3.5v-31.76l4.93-2.41c13.38-6.55,28.77-8.42,43.32-5.26l125.3,27.16   c9.13,1.98,18.43,2.2,27.65,0.67l22.46-3.74c9.42-1.57,18.87-1.12,28.09,1.35l68.19,18.21l-18.76,20.05H72.83z M492.5,335.15   l-7.35,3.65c-38.81,19.29-79.88,33.65-122.25,42.77l-10.39,2.23h-22.26l16.46-17.59c10.09-10.78,23.68-17.98,38.26-20.26l50.43-7.9   c12.95-2.03,25.55-5.82,37.46-11.27l18.04-8.25c1.03,3.48,1.59,7.16,1.59,10.96V335.15z"/><path d="M165.8,349.61H88.56c-5.93,0-10.74,4.81-10.74,10.74v0c0,5.93,4.81,10.74,10.74,10.74h77.24c5.93,0,10.74-4.81,10.74-10.74   v0C176.54,354.42,171.73,349.61,165.8,349.61z"/><path d="M120.13,133.39c1.49,1.24,3.69,1.03,4.93-0.45c0.15-0.18,0.27-0.36,0.38-0.56c0.79-1.44,0.48-3.28-0.83-4.37l-20.02-16.66   c-1.49-1.24-3.69-1.03-4.93,0.45c-1.23,1.48-1.03,3.69,0.45,4.93L120.13,133.39z"/><path d="M195.3,103.43c1.37,0.05,2.59-0.69,3.21-1.81c0.25-0.46,0.41-0.99,0.43-1.55l1.01-26.02c0.08-1.93-1.43-3.56-3.36-3.63   c-1.93-0.07-3.56,1.43-3.63,3.36l-1.01,26.02C191.86,101.73,193.37,103.35,195.3,103.43z"/><path d="M444.62,412.61c-1.11-1.58-3.29-1.97-4.88-0.85c-1.58,1.11-1.96,3.29-0.85,4.88l14.96,21.31c0.83,1.18,2.25,1.69,3.57,1.42   c0.46-0.09,0.9-0.28,1.31-0.56c1.58-1.11,1.96-3.29,0.85-4.88L444.62,412.61z"/><path d="M364.23,421.87c-1.84-0.58-3.81,0.45-4.39,2.29l-7.78,24.85c-0.58,1.84,0.45,3.81,2.29,4.39c0.59,0.18,1.18,0.21,1.75,0.09   c1.21-0.25,2.25-1.13,2.64-2.38l7.78-24.85C367.1,424.41,366.08,422.45,364.23,421.87z"/></g><text x="0" y="527" fill="#000000" font-size="5px" font-weight="bold" font-family="'Helvetica Neue', Helvetica, Arial-Unicode, Arial, Sans-serif">Created by iconfield</text><text x="0" y="532" fill="#000000" font-size="5px" font-weight="bold" font-family="'Helvetica Neue', Helvetica, Arial-Unicode, Arial, Sans-serif">from the Noun Project</text></svg>